<?xml version='1.0' encoding='UTF-8'?>
<svg width="350" height="350" version="1.1" viewBox="0 0 35 35" xmlns="http://www.w3.org/2000/svg"><path d="M1,1H2V2H1zM2,1H3V2H2zM3,1H4V2H3zM4,1H5V2H4zM5,1H6V2H5zM6,1H7V2H6zM7,1H8V2H7zM9,1H10V2H9zM13,1H14V2H13zM14,1H15V2H14zM15,1H16V2H15zM17,1H18V2H17zM19,1H20V2H19zM20,1H21V2H20zM21,1H22V2H21zM22,1H23V2H22zM24,1H25V2H24zM27,1H28V2H27zM28,1H29V2H28zM29,1H30V2H29zM30,1H31V2H30zM31,1H32V2H31zM32,1H33V2H32zM33,1H34V2H33zM1,2H2V3H1zM7,2H8V3H7zM9,2H10V3H9zM12,2H13V3H12zM14,2H15V3H14zM17,2H18V3H17zM19,2H20V3H19zM22,2H23V3H22zM23,2H24V3H23zM24,2H25V3H24zM27,2H28V3H27zM33,2H34V3H33zM1,3H2V4H1zM3,3H4V4H3zM4,3H5V4H4zM5,3H6V4H5zM7,3H8V4H7zM11,3H12V4H11zM13,3H14V4H13zM17,3H18V4H17zM21,3H22V4H21zM23,3H24V4H23zM24,3H25V4H24zM25,3H26V4H25zM27,3H28V4H27zM29,3H30V4H29zM30,3H31V4H30zM31,3H32V4H31zM33,3H34V4H33zM1,4H2V5H1zM3,4H4V5H3zM4,4H5V5H4zM5,4H6V5H5zM7,4H8V5H7zM9,4H10V5H9zM11,4H12V5H11zM15,4H16V5H15zM16,4H17V5H16zM17,4H18V5H17zM18,4H19V5H18zM19,4H20V5H19zM20,4H21V5H20zM21,4H22V5H21zM24,4H25V5H24zM27,4H28V5H27zM29,4H30V5H29zM30,4H31V5H30zM31,4H32V5H31zM33,4H34V5H33zM1,5H2V6H1zM3,5H4V6H3zM4,5H5V6H4zM5,5H6V6H5zM7,5H8V6H7zM10,5H11V6H10zM11,5H12V6H11zM15,5H16V6H15zM19,5H20V6H19zM20,5H21V6H20zM21,5H22V6H21zM23,5H24V6H23zM27,5H28V6H27zM29,5H30V6H29zM30,5H31V6H30zM31,5H32V6H31zM33,5H34V6H33zM1,6H2V7H1zM7,6H8V7H7zM10,6H11V7H10zM11,6H12V7H11zM14,6H15V7H14zM19,6H20V7H19zM20,6H21V7H20zM23,6H24V7H23zM27,6H28V7H27zM33,6H34V7H33zM1,7H2V8H1zM2,7H3V8H2zM3,7H4V8H3zM4,7H5V8H4zM5,7H6V8H5zM6,7H7V8H6zM7,7H8V8H7zM9,7H10V8H9zM11,7H12V8H11zM13,7H14V8H13zM15,7H16V8H15zM17,7H18V8H17zM19,7H20V8H19zM21,7H22V8H21zM23,7H24V8H23zM25,7H26V8H25zM27,7H28V8H27zM28,7H29V8H28zM29,7H30V8H29zM30,7H31V8H30zM31,7H32V8H31zM32,7H33V8H32zM33,7H34V8H33zM9,8H10V9H9zM11,8H12V9H11zM13,8H14V9H13zM15,8H16V9H15zM18,8H19V9H18zM19,8H20V9H19zM21,8H22V9H21zM23,8H24V9H23zM24,8H25V9H24zM25,8H26V9H25zM1,9H2V10H1zM3,9H4V10H3zM4,9H5V10H4zM6,9H7V10H6zM7,9H8V10H7zM8,9H9V10H8zM10,9H11V10H10zM11,9H12V10H11zM12,9H13V10H12zM13,9H14V10H13zM15,9H16V10H15zM17,9H18V10H17zM18,9H19V10H18zM22,9H23V10H22zM27,9H28V10H27zM30,9H31V10H30zM32,9H33V10H32zM33,9H34V10H33zM3,10H4V11H3zM4,10H5V11H4zM10,10H11V11H10zM11,10H12V11H11zM13,10H14V11H13zM17,10H18V11H17zM19,10H20V11H19zM20,10H21V11H20zM21,10H22V11H21zM22,10H23V11H22zM23,10H24V11H23zM24,10H25V11H24zM25,10H26V11H25zM27,10H28V11H27zM28,10H29V11H28zM30,10H31V11H30zM31,10H32V11H31zM32,10H33V11H32zM33,10H34V11H33zM2,11H3V12H2zM3,11H4V12H3zM4,11H5V12H4zM5,11H6V12H5zM6,11H7V12H6zM7,11H8V12H7zM8,11H9V12H8zM10,11H11V12H10zM11,11H12V12H11zM12,11H13V12H12zM13,11H14V12H13zM15,11H16V12H15zM18,11H19V12H18zM22,11H23V12H22zM23,11H24V12H23zM24,11H25V12H24zM25,11H26V12H25zM28,11H29V12H28zM29,11H30V12H29zM30,11H31V12H30zM32,11H33V12H32zM33,11H34V12H33zM1,12H2V13H1zM2,12H3V13H2zM11,12H12V13H11zM14,12H15V13H14zM15,12H16V13H15zM16,12H17V13H16zM17,12H18V13H17zM24,12H25V13H24zM28,12H29V13H28zM30,12H31V13H30zM3,13H4V14H3zM4,13H5V14H4zM5,13H6V14H5zM6,13H7V14H6zM7,13H8V14H7zM8,13H9V14H8zM10,13H11V14H10zM19,13H20V14H19zM21,13H22V14H21zM25,13H26V14H25zM26,13H27V14H26zM28,13H29V14H28zM29,13H30V14H29zM30,13H31V14H30zM32,13H33V14H32zM4,14H5V15H4zM6,14H7V15H6zM11,14H12V15H11zM17,14H18V15H17zM20,14H21V15H20zM21,14H22V15H21zM23,14H24V15H23zM25,14H26V15H25zM28,14H29V15H28zM30,14H31V15H30zM32,14H33V15H32zM2,15H3V16H2zM4,15H5V16H4zM7,15H8V16H7zM8,15H9V16H8zM9,15H10V16H9zM11,15H12V16H11zM12,15H13V16H12zM14,15H15V16H14zM16,15H17V16H16zM17,15H18V16H17zM18,15H19V16H18zM19,15H20V16H19zM20,15H21V16H20zM23,15H24V16H23zM25,15H26V16H25zM27,15H28V16H27zM29,15H30V16H29zM30,15H31V16H30zM31,15H32V16H31zM1,16H2V17H1zM5,16H6V17H5zM6,16H7V17H6zM12,16H13V17H12zM13,16H14V17H13zM15,16H16V17H15zM17,16H18V17H17zM20,16H21V17H20zM22,16H23V17H22zM25,16H26V17H25zM26,16H27V17H26zM27,16H28V17H27zM29,16H30V17H29zM30,16H31V17H30zM31,16H32V17H31zM3,17H4V18H3zM4,17H5V18H4zM7,17H8V18H7zM9,17H10V18H9zM10,17H11V18H10zM13,17H14V18H13zM15,17H16V18H15zM16,17H17V18H16zM19,17H20V18H19zM21,17H22V18H21zM22,17H23V18H22zM23,17H24V18H23zM25,17H26V18H25zM26,17H27V18H26zM27,17H28V18H27zM29,17H30V18H29zM30,17H31V18H30zM31,17H32V18H31zM3,18H4V19H3zM4,18H5V19H4zM5,18H6V19H5zM6,18H7V19H6zM8,18H9V19H8zM10,18H11V19H10zM11,18H12V19H11zM13,18H14V19H13zM14,18H15V19H14zM16,18H17V19H16zM18,18H19V19H18zM21,18H22V19H21zM22,18H23V19H22zM24,18H25V19H24zM25,18H26V19H25zM26,18H27V19H26zM27,18H28V19H27zM29,18H30V19H29zM30,18H31V19H30zM32,18H33V19H32zM33,18H34V19H33zM1,19H2V20H1zM3,19H4V20H3zM5,19H6V20H5zM6,19H7V20H6zM7,19H8V20H7zM9,19H10V20H9zM10,19H11V20H10zM13,19H14V20H13zM15,19H16V20H15zM16,19H17V20H16zM17,19H18V20H17zM18,19H19V20H18zM22,19H23V20H22zM25,19H26V20H25zM28,19H29V20H28zM29,19H30V20H29zM31,19H32V20H31zM32,19H33V20H32zM1,20H2V21H1zM2,20H3V21H2zM8,20H9V21H8zM10,20H11V21H10zM13,20H14V21H13zM15,20H16V21H15zM16,20H17V21H16zM17,20H18V21H17zM20,20H21V21H20zM24,20H25V21H24zM26,20H27V21H26zM29,20H30V21H29zM4,21H5V22H4zM5,21H6V22H5zM7,21H8V22H7zM8,21H9V22H8zM9,21H10V22H9zM11,21H12V22H11zM12,21H13V22H12zM13,21H14V22H13zM15,21H16V22H15zM16,21H17V22H16zM19,21H20V22H19zM21,21H22V22H21zM22,21H23V22H22zM23,21H24V22H23zM30,21H31V22H30zM31,21H32V22H31zM33,21H34V22H33zM1,22H2V23H1zM5,22H6V23H5zM8,22H9V23H8zM10,22H11V23H10zM13,22H14V23H13zM14,22H15V23H14zM15,22H16V23H15zM16,22H17V23H16zM19,22H20V23H19zM20,22H21V23H20zM22,22H23V23H22zM23,22H24V23H23zM24,22H25V23H24zM27,22H28V23H27zM30,22H31V23H30zM31,22H32V23H31zM33,22H34V23H33zM3,23H4V24H3zM4,23H5V24H4zM7,23H8V24H7zM8,23H9V24H8zM9,23H10V24H9zM11,23H12V24H11zM17,23H18V24H17zM18,23H19V24H18zM21,23H22V24H21zM24,23H25V24H24zM25,23H26V24H25zM27,23H28V24H27zM29,23H30V24H29zM32,23H33V24H32zM33,23H34V24H33zM2,24H3V25H2zM5,24H6V25H5zM6,24H7V25H6zM9,24H10V25H9zM10,24H11V25H10zM13,24H14V25H13zM17,24H18V25H17zM19,24H20V25H19zM20,24H21V25H20zM21,24H22V25H21zM23,24H24V25H23zM24,24H25V25H24zM25,24H26V25H25zM28,24H29V25H28zM29,24H30V25H29zM32,24H33V25H32zM33,24H34V25H33zM1,25H2V26H1zM3,25H4V26H3zM5,25H6V26H5zM6,25H7V26H6zM7,25H8V26H7zM8,25H9V26H8zM9,25H10V26H9zM11,25H12V26H11zM12,25H13V26H12zM16,25H17V26H16zM18,25H19V26H18zM23,25H24V26H23zM24,25H25V26H24zM25,25H26V26H25zM26,25H27V26H26zM27,25H28V26H27zM28,25H29V26H28zM29,25H30V26H29zM32,25H33V26H32zM9,26H10V27H9zM10,26H11V27H10zM12,26H13V27H12zM13,26H14V27H13zM15,26H16V27H15zM16,26H17V27H16zM18,26H19V27H18zM19,26H20V27H19zM20,26H21V27H20zM21,26H22V27H21zM22,26H23V27H22zM25,26H26V27H25zM29,26H30V27H29zM30,26H31V27H30zM1,27H2V28H1zM2,27H3V28H2zM3,27H4V28H3zM4,27H5V28H4zM5,27H6V28H5zM6,27H7V28H6zM7,27H8V28H7zM9,27H10V28H9zM10,27H11V28H10zM11,27H12V28H11zM13,27H14V28H13zM15,27H16V28H15zM17,27H18V28H17zM20,27H21V28H20zM21,27H22V28H21zM23,27H24V28H23zM24,27H25V28H24zM25,27H26V28H25zM27,27H28V28H27zM29,27H30V28H29zM1,28H2V29H1zM7,28H8V29H7zM9,28H10V29H9zM12,28H13V29H12zM15,28H16V29H15zM16,28H17V29H16zM21,28H22V29H21zM22,28H23V29H22zM23,28H24V29H23zM24,28H25V29H24zM25,28H26V29H25zM29,28H30V29H29zM30,28H31V29H30zM31,28H32V29H31zM32,28H33V29H32zM1,29H2V30H1zM3,29H4V30H3zM4,29H5V30H4zM5,29H6V30H5zM7,29H8V30H7zM10,29H11V30H10zM11,29H12V30H11zM13,29H14V30H13zM14,29H15V30H14zM18,29H19V30H18zM22,29H23V30H22zM24,29H25V30H24zM25,29H26V30H25zM26,29H27V30H26zM27,29H28V30H27zM28,29H29V30H28zM29,29H30V30H29zM31,29H32V30H31zM33,29H34V30H33zM1,30H2V31H1zM3,30H4V31H3zM4,30H5V31H4zM5,30H6V31H5zM7,30H8V31H7zM9,30H10V31H9zM10,30H11V31H10zM12,30H13V31H12zM14,30H15V31H14zM15,30H16V31H15zM19,30H20V31H19zM22,30H23V31H22zM28,30H29V31H28zM30,30H31V31H30zM31,30H32V31H31zM33,30H34V31H33zM1,31H2V32H1zM3,31H4V32H3zM4,31H5V32H4zM5,31H6V32H5zM7,31H8V32H7zM9,31H10V32H9zM10,31H11V32H10zM11,31H12V32H11zM19,31H20V32H19zM21,31H22V32H21zM22,31H23V32H22zM23,31H24V32H23zM25,31H26V32H25zM26,31H27V32H26zM27,31H28V32H27zM28,31H29V32H28zM30,31H31V32H30zM31,31H32V32H31zM1,32H2V33H1zM7,32H8V33H7zM11,32H12V33H11zM12,32H13V33H12zM13,32H14V33H13zM15,32H16V33H15zM16,32H17V33H16zM17,32H18V33H17zM18,32H19V33H18zM21,32H22V33H21zM24,32H25V33H24zM25,32H26V33H25zM28,32H29V33H28zM29,32H30V33H29zM33,32H34V33H33zM1,33H2V34H1zM2,33H3V34H2zM3,33H4V34H3zM4,33H5V34H4zM5,33H6V34H5zM6,33H7V34H6zM7,33H8V34H7zM9,33H10V34H9zM13,33H14V34H13zM14,33H15V34H14zM15,33H16V34H15zM16,33H17V34H16zM18,33H19V34H18zM19,33H20V34H19zM22,33H23V34H22zM27,33H28V34H27zM29,33H30V34H29zM31,33H32V34H31z" id="qr-path" fill="#3a2f28" fill-opacity="1" fill-rule="nonzero" stroke="none"/></svg>